REM DIRINDEX 1\3,1\5,1\6,1\2\7,1\2\8,1\4\9,1\4\10
REM DIRNAME folder01,folder02,folder03,folder04,folder05,folder06,folder07,folder08,folder09,folder10
TITLE ""
FILE "CD1Track16.mp3" MP3
  TRACK 01 AUDIO
    TITLE "9:cjc060_0379"
    INDEX 01 00:00:00
  TRACK 02 AUDIO
    TITLE "10:cjc060_0380"
    INDEX 01 00:01:40
  TRACK 03 AUDIO
    TITLE "9:cjc060_0381"
    INDEX 01 00:04:42
  TRACK 04 AUDIO
    TITLE "10:cjc060_0382"
    INDEX 01 00:06:30
  TRACK 05 AUDIO
    TITLE "9:cjc060_0383"
    INDEX 01 00:10:66
  TRACK 06 AUDIO
    TITLE "10:cjc060_0384"
    INDEX 01 00:12:30
  TRACK 07 AUDIO
    TITLE "10:cjc060_0385"
    INDEX 01 00:14:53
  TRACK 08 AUDIO
    TITLE "9:cjc060_0386"
    INDEX 01 00:17:49
  TRACK 09 AUDIO
    TITLE "10:cjc060_0387"
    INDEX 01 00:19:16
  TRACK 10 AUDIO
    TITLE "9:cjc060_0388"
    INDEX 01 00:22:46
  TRACK 11 AUDIO
    TITLE "10:cjc060_0389"
    INDEX 01 00:24:33
  TRACK 12 AUDIO
    TITLE "9:cjc060_0390"
    INDEX 01 00:27:24
  TRACK 13 AUDIO
    TITLE "10:cjc060_0391"
    INDEX 01 00:28:60
  TRACK 14 AUDIO
    TITLE "9:cjc060_0392"
    INDEX 01 00:32:45
  TRACK 15 AUDIO
    TITLE "10:cjc060_0393"
    INDEX 01 00:34:20
  TRACK 16 AUDIO
    TITLE "9:cjc060_0394"
    INDEX 01 00:37:22
  TRACK 17 AUDIO
    TITLE "10:cjc060_0395"
    INDEX 01 00:38:71
  TRACK 18 AUDIO
    TITLE "9:cjc060_0396"
    INDEX 01 00:42:10
  TRACK 19 AUDIO
    TITLE "10:cjc060_0397"
    INDEX 01 00:45:30
  TRACK 20 AUDIO
    TITLE "9:cjc060_0398"
    INDEX 01 00:49:70
  TRACK 21 AUDIO
    TITLE "10:cjc060_0399"
    INDEX 01 00:51:52
  TRACK 22 AUDIO
    TITLE "9:cjc060_0400"
    INDEX 01 00:55:69
  TRACK 23 AUDIO
    TITLE "10:cjc060_0401"
    INDEX 01 00:57:41
  TRACK 24 AUDIO
    TITLE "9:cjc060_0402"
    INDEX 01 01:01:44
  TRACK 25 AUDIO
    TITLE "10:cjc060_0403"
    INDEX 01 01:03:26
  TRACK 26 AUDIO
    TITLE "9:cjc060_0404"
    INDEX 01 01:06:42
  TRACK 27 AUDIO
    TITLE "10:cjc060_0405"
    INDEX 01 01:08:19
  TRACK 28 AUDIO
    TITLE "9:cjc060_0406"
    INDEX 01 01:13:00
  TRACK 29 AUDIO
    TITLE "10:cjc060_0407"
    INDEX 01 01:14:51
  TRACK 30 AUDIO
    TITLE "9:cjc060_0408"
    INDEX 01 01:18:70
  TRACK 31 AUDIO
    TITLE "10:cjc060_0409"
    INDEX 01 01:21:70
  TRACK 32 AUDIO
    TITLE "10:cjc060_0410"
    INDEX 01 01:24:14
  TRACK 33 AUDIO
    TITLE "9:cjc060_0411"
    INDEX 01 01:27:01
  TRACK 34 AUDIO
    TITLE "10:cjc060_0412"
    INDEX 01 01:28:47
  TRACK 35 AUDIO
    TITLE "10:cjc060_0413"
    INDEX 01 01:30:58
  TRACK 36 AUDIO
    TITLE "10:cjc060_0414"
    INDEX 01 01:32:47
  TRACK 37 AUDIO
    TITLE "9:cjc060_0415"
    INDEX 01 01:35:04
  TRACK 38 AUDIO
    TITLE "10:cjc060_0416"
    INDEX 01 01:38:12
  TRACK 39 AUDIO
    TITLE "9:cjc060_0417"
    INDEX 01 01:42:47
  TRACK 40 AUDIO
    TITLE "10:cjc060_0418"
    INDEX 01 01:44:21
  TRACK 41 AUDIO
    TITLE "9:cjc060_0419"
    INDEX 01 01:47:46
  TRACK 42 AUDIO
    TITLE "10:cjc060_0420"
    INDEX 01 01:49:26
  TRACK 43 AUDIO
    TITLE "9:cjc060_0421"
    INDEX 01 01:54:17
  TRACK 44 AUDIO
    TITLE "10:cjc060_0422"
    INDEX 01 01:56:22
  TRACK 45 AUDIO
    TITLE "9:cjc060_0423"
    INDEX 01 01:59:14
  TRACK 46 AUDIO
    TITLE "10:cjc060_0424"
    INDEX 01 02:00:63
  TRACK 47 AUDIO
    TITLE "9:cjc060_0425"
    INDEX 01 02:04:35
  TRACK 48 AUDIO
    TITLE "10:cjc060_0426"
    INDEX 01 02:07:37
  TRACK 49 AUDIO
    TITLE "9:cjc060_0427"
    INDEX 01 02:10:59
  TRACK 50 AUDIO
    TITLE "10:cjc060_0428"
    INDEX 01 02:12:35
  TRACK 51 AUDIO
    TITLE "9:cjc060_0429"
    INDEX 01 02:16:07
  TRACK 52 AUDIO
    TITLE "10:cjc060_0430"
    INDEX 01 02:17:49
  TRACK 53 AUDIO
    TITLE "10:cjc060_0431"
    INDEX 01 02:20:46
  TRACK 54 AUDIO
    TITLE "10:cjc060_0432"
    INDEX 01 02:23:66
  TRACK 55 AUDIO
    TITLE "9:cjc060_0433"
    INDEX 01 02:27:40
  TRACK 56 AUDIO
    TITLE "10:cjc060_0434"
    INDEX 01 02:29:17
  TRACK 57 AUDIO
    TITLE "9:cjc060_0435"
    INDEX 01 02:31:69
  TRACK 58 AUDIO
    TITLE "10:cjc060_0436"
    INDEX 01 02:33:43
  TRACK 59 AUDIO
    TITLE "9:cjc060_0437"
    INDEX 01 02:37:40
  TRACK 60 AUDIO
    TITLE "10:cjc060_0438"
    INDEX 01 02:40:47
  TRACK 61 AUDIO
    TITLE "9:cjc060_0439"
    INDEX 01 02:43:63
  TRACK 62 AUDIO
    TITLE "10:cjc060_0440"
    INDEX 01 02:45:32
  TRACK 63 AUDIO
    TITLE "9:cjc060_0441"
    INDEX 01 02:49:04
  TRACK 64 AUDIO
    TITLE "10:cjc060_0442"
    INDEX 01 02:50:51
  TRACK 65 AUDIO
    TITLE "9:cjc060_0443"
    INDEX 01 02:55:25
  TRACK 66 AUDIO
    TITLE "10:cjc060_0444"
    INDEX 01 02:57:18
  TRACK 67 AUDIO
    TITLE "9:cjc060_0445"
    INDEX 01 03:00:12
  TRACK 68 AUDIO
    TITLE "10:cjc060_0446"
    INDEX 01 03:01:57
  TRACK 69 AUDIO
    TITLE "9:cjc060_0447"
    INDEX 01 03:06:05
  TRACK 70 AUDIO
    TITLE "10:cjc060_0448"
    INDEX 01 03:07:53
  TRACK 71 AUDIO
    TITLE "9:cjc060_0449"
    INDEX 01 03:11:57
  TRACK 72 AUDIO
    TITLE "10:cjc060_0450"
    INDEX 01 03:13:30
  TRACK 73 AUDIO
    TITLE "9:cjc060_0451"
    INDEX 01 03:16:64
  TRACK 74 AUDIO
    TITLE "10:cjc060_0452"
    INDEX 01 03:18:47
  TRACK 75 AUDIO
    TITLE "9:cjc060_0453"
    INDEX 01 03:21:47
  TRACK 76 AUDIO
    TITLE "10:cjc060_0454"
    INDEX 01 03:23:19
  TRACK 77 AUDIO
    TITLE "10:cjc060_0455"
    INDEX 01 03:25:61
  TRACK 78 AUDIO
    TITLE "0:"
    INDEX 01 03:28:18
